<svg width="54" height="54" viewBox="0 0 54 54" fill="none" xmlns="http://www.w3.org/2000/svg">
<rect width="54" height="54" rx="27" fill="#FEEFCD"/>
<path d="M25.25 17.1875C25.25 17.425 25.05 17.625 24.8125 17.625H23.4C20.7 17.625 18.5 19.825 18.5 22.525V34.0625C18.5 34.3 18.3 34.5 18.0625 34.5H17.1875C15.7 34.5 14.5 33.3 14.5 31.8125V17.1875C14.5 15.7 15.7 14.5 17.1875 14.5H22.5625C24.05 14.5 25.25 15.7 25.25 17.1875Z" fill="#C78E05"/>
<path d="M39.5 17.1875V31.8125C39.5 33.3 38.3 34.5 36.8125 34.5H36.025C35.7875 34.5 35.5875 34.3 35.5875 34.0625V22.525C35.5875 19.825 33.3875 17.625 30.6875 17.625H29.1875C28.95 17.625 28.75 17.425 28.75 17.1875C28.75 15.7 29.95 14.5 31.4375 14.5H36.8125C38.3 14.5 39.5 15.7 39.5 17.1875Z" fill="#C78E05"/>
<path d="M30.6875 19.5H23.4C21.725 19.5 20.375 20.85 20.375 22.525V36.475C20.375 38.15 21.725 39.5 23.4 39.5H25.4375C25.7875 39.5 26.0625 39.225 26.0625 38.875V35.75C26.0625 35.2375 26.4875 34.8125 27 34.8125C27.5125 34.8125 27.9375 35.2375 27.9375 35.75V38.875C27.9375 39.225 28.2125 39.5 28.5625 39.5H30.7C32.3625 39.5 33.7125 38.15 33.7125 36.4875V22.525C33.7125 20.85 32.3625 19.5 30.6875 19.5ZM29.5 30.4375H24.5C23.9875 30.4375 23.5625 30.0125 23.5625 29.5C23.5625 28.9875 23.9875 28.5625 24.5 28.5625H29.5C30.0125 28.5625 30.4375 28.9875 30.4375 29.5C30.4375 30.0125 30.0125 30.4375 29.5 30.4375ZM29.5 26.6875H24.5C23.9875 26.6875 23.5625 26.2625 23.5625 25.75C23.5625 25.2375 23.9875 24.8125 24.5 24.8125H29.5C30.0125 24.8125 30.4375 25.2375 30.4375 25.75C30.4375 26.2625 30.0125 26.6875 29.5 26.6875Z" fill="#C78E05"/>
</svg>
